<svg width="48" height="48" viewBox="0 0 48 48" fill="none" xmlns="http://www.w3.org/2000/svg">
<path d="M28 42.5001H20V45.5001H28V42.5001ZM5.5 28.0001V20.0001H2.5V28.0001H5.5ZM42.5 27.1261V28.0001H45.5V27.1261H42.5ZM29.782 9.22211L37.7 16.3481L39.706 14.1161L31.79 6.99011L29.782 9.22211ZM45.5 27.1261C45.5 23.7481 45.53 21.6081 44.68 19.6961L41.938 20.9181C42.47 22.1141 42.5 23.4841 42.5 27.1261H45.5ZM37.7 16.3481C40.406 18.7841 41.406 19.7241 41.938 20.9181L44.68 19.6961C43.828 17.7821 42.218 16.3761 39.706 14.1161L37.7 16.3481ZM20.06 5.50011C23.224 5.50011 24.418 5.52411 25.48 5.93211L26.556 3.13211C24.852 2.47611 22.996 2.50011 20.06 2.50011V5.50011ZM31.79 6.99211C29.618 5.03811 28.26 3.78411 26.556 3.13211L25.482 5.93211C26.546 6.34011 27.442 7.11611 29.782 9.22211L31.79 6.99211ZM20 42.5001C16.186 42.5001 13.478 42.4961 11.42 42.2201C9.41 41.9501 8.25 41.4421 7.404 40.5961L5.284 42.7161C6.78 44.2161 8.678 44.8781 11.022 45.1941C13.322 45.5041 16.272 45.5001 20 45.5001V42.5001ZM2.5 28.0001C2.5 31.7281 2.496 34.6761 2.806 36.9781C3.122 39.3221 3.786 41.2201 5.282 42.7181L7.402 40.5981C6.558 39.7501 6.05 38.5901 5.78 36.5781C5.504 34.5241 5.5 31.8141 5.5 28.0001H2.5ZM28 45.5001C31.728 45.5001 34.676 45.5041 36.978 45.1941C39.322 44.8781 41.22 44.2141 42.718 42.7181L40.598 40.5981C39.75 41.4421 38.59 41.9501 36.578 42.2201C34.524 42.4961 31.814 42.5001 28 42.5001V45.5001ZM42.5 28.0001C42.5 31.8141 42.496 34.5241 42.22 36.5801C41.95 38.5901 41.442 39.7501 40.596 40.5961L42.716 42.7161C44.216 41.2201 44.878 39.3221 45.194 36.9781C45.504 34.6781 45.5 31.7281 45.5 28.0001H42.5ZM5.5 20.0001C5.5 16.1861 5.504 13.4781 5.78 11.4201C6.05 9.41011 6.558 8.25011 7.404 7.40411L5.284 5.28411C3.784 6.78011 3.122 8.67811 2.806 11.0221C2.496 13.3221 2.5 16.2721 2.5 20.0001H5.5ZM20.06 2.50011C16.31 2.50011 13.348 2.49611 11.038 2.80611C8.684 3.12211 6.78 3.78611 5.282 5.28211L7.402 7.40211C8.25 6.55811 9.412 6.05011 11.436 5.78011C13.502 5.50411 16.226 5.50011 20.06 5.50011V2.50011Z" fill="black"/>
<path d="M26 5V10C26 14.714 26 17.072 27.464 18.536C28.928 20 31.286 20 36 20H44" stroke="black" stroke-width="3"/>
</svg>
