<svg width="36" height="36" viewBox="0 0 36 36" fill="none" xmlns="http://www.w3.org/2000/svg">
<path d="M13.5 24.2547L8.29497 19.0497C8.01451 18.7693 7.63411 18.6117 7.23747 18.6117C6.84083 18.6117 6.46044 18.7693 6.17997 19.0497C5.89951 19.3302 5.74194 19.7106 5.74194 20.1072C5.74194 20.3036 5.78063 20.4981 5.85578 20.6796C5.93094 20.861 6.0411 21.0259 6.17997 21.1647L12.45 27.4348C13.035 28.0198 13.98 28.0198 14.565 27.4348L30.435 11.5647C30.7154 11.2843 30.873 10.9039 30.873 10.5072C30.873 10.1106 30.7154 9.73022 30.435 9.44975C30.1545 9.16928 29.7741 9.01172 29.3775 9.01172C28.9808 9.01172 28.6004 9.16928 28.32 9.44975L13.5 24.2547Z" fill="black"/>
</svg>
