<svg width="36" height="36" viewBox="0 0 36 36" fill="none" xmlns="http://www.w3.org/2000/svg">
<path d="M18 31.5C20.67 31.5 23.2801 30.7082 25.5002 29.2248C27.7203 27.7414 29.4506 25.633 30.4724 23.1662C31.4942 20.6994 31.7615 17.985 31.2406 15.3663C30.7197 12.7475 29.4339 10.3421 27.5459 8.45406C25.6579 6.56606 23.2525 5.28031 20.6337 4.7594C18.015 4.2385 15.3006 4.50585 12.8338 5.52763C10.367 6.54942 8.25856 8.27974 6.77516 10.4998C5.29176 12.7199 4.5 15.33 4.5 18C4.5 20.232 5.04 22.3365 6 24.1905L4.5 31.5L11.8095 30C13.6635 30.96 15.7695 31.5 18 31.5Z" stroke="black" stroke-width="5" stroke-linecap="round" stroke-linejoin="round"/>
</svg>
