<svg width="92" height="92" viewBox="0 0 92 92" fill="none" xmlns="http://www.w3.org/2000/svg">
<path d="M84.0148 74.749C79.1412 66.1953 71.5311 59.5305 62.4095 55.8273C66.9455 52.4253 70.2962 47.6822 71.9869 42.27C73.6775 36.8578 73.6224 31.0509 71.8293 25.6718C70.0363 20.2926 66.5962 15.614 61.9964 12.2986C57.3966 8.98326 51.8702 7.19922 46.2001 7.19922C40.53 7.19922 35.0036 8.98326 30.4038 12.2986C25.8039 15.614 22.3638 20.2926 20.5708 25.6718C18.7778 31.0509 18.7226 36.8578 20.4133 42.27C22.1039 47.6822 25.4546 52.4253 29.9907 55.8273C20.8691 59.5305 13.2589 66.1953 8.3853 74.749C8.08332 75.2345 7.88204 75.7759 7.79345 76.3408C7.70486 76.9057 7.73075 77.4827 7.86959 78.0374C8.00844 78.5921 8.2574 79.1133 8.60167 79.5698C8.94594 80.0264 9.3785 80.4091 9.87363 80.6952C10.3688 80.9812 10.9164 81.1648 11.4839 81.235C12.0514 81.3052 12.6272 81.2606 13.1771 81.1038C13.727 80.9471 14.2398 80.6813 14.6849 80.3224C15.1301 79.9635 15.4986 79.5187 15.7684 79.0146C22.2095 67.8813 33.5845 61.2411 46.2001 61.2411C58.8157 61.2411 70.1907 67.8848 76.6318 79.0146C77.2166 79.9549 78.1441 80.631 79.2183 80.8998C80.2925 81.1687 81.4291 81.0093 82.388 80.4553C83.3468 79.9014 84.0526 78.9963 84.3562 77.9314C84.6598 76.8665 84.5374 75.7252 84.0148 74.749ZM27.7157 34.2255C27.7157 30.5696 28.7998 26.9959 30.8309 23.9561C32.862 20.9164 35.7488 18.5472 39.1264 17.1482C42.504 15.7491 46.2206 15.3831 49.8062 16.0963C53.3918 16.8095 56.6854 18.57 59.2705 21.1551C61.8556 23.7402 63.6161 27.0338 64.3293 30.6194C65.0425 34.205 64.6764 37.9216 63.2774 41.2992C61.8784 44.6768 59.5092 47.5636 56.4694 49.5947C53.4297 51.6258 49.8559 52.7099 46.2001 52.7099C41.2994 52.7042 36.6011 50.755 33.1359 47.2897C29.6706 43.8244 27.7213 39.1261 27.7157 34.2255Z" fill="#AAAAAA"/>
</svg>
